<svg width="383" height="115" viewBox="0 0 383 115" fill="none" xmlns="http://www.w3.org/2000/svg">
<circle cx="85.757" cy="85.7578" r="28.5857" fill="#38FFFF"/>
<circle cx="57.1716" cy="85.7578" r="28.5857" fill="#36ABFF"/>
<circle cx="84.3962" cy="85.7578" r="28.5857" fill="#38FBFF"/>
<circle cx="83.0349" cy="85.7578" r="28.5857" fill="#38F7FF"/>
<circle cx="81.6735" cy="85.7578" r="28.5857" fill="#38F3FF"/>
<circle cx="80.3122" cy="85.7578" r="28.5857" fill="#38EFFF"/>
<circle cx="78.9509" cy="85.7578" r="28.5857" fill="#38EBFF"/>
<circle cx="77.59" cy="85.7578" r="28.5857" fill="#38E7FF"/>
<circle cx="76.2287" cy="85.7578" r="28.5857" fill="#38E3FF"/>
<circle cx="74.8674" cy="85.7578" r="28.5857" fill="#38DFFF"/>
<circle cx="73.5061" cy="85.7578" r="28.5857" fill="#37DBFF"/>
<circle cx="72.1452" cy="85.7578" r="28.5857" fill="#37D7FF"/>
<circle cx="70.7839" cy="85.7578" r="28.5857" fill="#37D3FF"/>
<circle cx="69.4226" cy="85.7578" r="28.5857" fill="#37CFFF"/>
<circle cx="68.0612" cy="85.7578" r="28.5857" fill="#37CBFF"/>
<circle cx="66.6999" cy="85.7578" r="28.5857" fill="#37C7FF"/>
<circle cx="65.3391" cy="85.7578" r="28.5857" fill="#37C3FF"/>
<circle cx="63.9777" cy="85.7578" r="28.5857" fill="#37BFFF"/>
<circle cx="62.6164" cy="85.7578" r="28.5857" fill="#37BBFF"/>
<circle cx="61.2551" cy="85.7578" r="28.5857" fill="#36B7FF"/>
<circle cx="59.8942" cy="85.7578" r="28.5857" fill="#36B3FF"/>
<circle cx="58.5329" cy="85.7578" r="28.5857" fill="#36AFFF"/>
<circle cx="57.1711" cy="85.7578" r="28.5857" fill="#36ABFF"/>
<circle cx="28.5857" cy="85.7578" r="28.5857" fill="#CB36FF"/>
<circle cx="55.8103" cy="85.7578" r="28.5857" fill="#3DA5FF"/>
<circle cx="54.4489" cy="85.7578" r="28.5857" fill="#44A0FF"/>
<circle cx="53.0876" cy="85.7578" r="28.5857" fill="#4B9AFF"/>
<circle cx="51.7263" cy="85.7578" r="28.5857" fill="#5294FF"/>
<circle cx="50.365" cy="85.7578" r="28.5857" fill="#5A8FFF"/>
<circle cx="49.0041" cy="85.7578" r="28.5857" fill="#6189FF"/>
<circle cx="47.6428" cy="85.7578" r="28.5857" fill="#6884FF"/>
<circle cx="46.2815" cy="85.7578" r="28.5857" fill="#6F7EFF"/>
<circle cx="44.9206" cy="85.7578" r="28.5857" fill="#7679FF"/>
<circle cx="43.5593" cy="85.7578" r="28.5857" fill="#7D73FF"/>
<circle cx="42.198" cy="85.7578" r="28.5857" fill="#846EFF"/>
<circle cx="40.8366" cy="85.7578" r="28.5857" fill="#8B68FF"/>
<circle cx="39.4753" cy="85.7578" r="28.5857" fill="#9263FF"/>
<circle cx="38.1145" cy="85.7578" r="28.5857" fill="#995DFF"/>
<circle cx="36.7531" cy="85.7578" r="28.5857" fill="#A057FF"/>
<circle cx="35.3918" cy="85.7578" r="28.5857" fill="#A752FF"/>
<circle cx="34.0305" cy="85.7578" r="28.5857" fill="#AE4CFF"/>
<circle cx="32.6692" cy="85.7578" r="28.5857" fill="#B647FF"/>
<circle cx="31.3083" cy="85.7578" r="28.5857" fill="#BD41FF"/>
<circle cx="29.947" cy="85.7578" r="28.5857" fill="#C43CFF"/>
<circle cx="28.5857" cy="57.171" r="28.5857" fill="#FF3535"/>
<circle cx="28.5857" cy="85.7567" r="28.5857" fill="#CB36FF"/>
<circle cx="28.5857" cy="84.3955" r="28.5857" fill="#CD36F5"/>
<circle cx="28.5857" cy="83.0343" r="28.5857" fill="#D036EC"/>
<circle cx="28.5857" cy="81.6732" r="28.5857" fill="#D236E2"/>
<circle cx="28.5857" cy="80.3117" r="28.5857" fill="#D536D9"/>
<circle cx="28.5857" cy="78.9505" r="28.5857" fill="#D736CF"/>
<circle cx="28.5857" cy="77.5893" r="28.5857" fill="#DA36C5"/>
<circle cx="28.5857" cy="76.2279" r="28.5857" fill="#DC36BC"/>
<circle cx="28.5857" cy="74.8668" r="28.5857" fill="#DF36B2"/>
<circle cx="28.5857" cy="73.5056" r="28.5857" fill="#E136A8"/>
<circle cx="28.5857" cy="72.1444" r="28.5857" fill="#E4369F"/>
<circle cx="28.5857" cy="70.7833" r="28.5857" fill="#E63695"/>
<circle cx="28.5857" cy="69.4221" r="28.5857" fill="#E9368C"/>
<circle cx="28.5857" cy="68.0609" r="28.5857" fill="#EB3682"/>
<circle cx="28.5857" cy="66.6997" r="28.5857" fill="#EE3578"/>
<circle cx="28.5857" cy="65.3382" r="28.5857" fill="#F0356F"/>
<circle cx="28.5857" cy="63.9771" r="28.5857" fill="#F33565"/>
<circle cx="28.5857" cy="62.6159" r="28.5857" fill="#F5355C"/>
<circle cx="28.5857" cy="61.2545" r="28.5857" fill="#F83552"/>
<circle cx="28.5857" cy="59.8933" r="28.5857" fill="#FA3548"/>
<circle cx="28.5857" cy="58.5322" r="28.5857" fill="#FD353F"/>
<circle cx="28.5857" cy="28.5857" r="28.5857" fill="#5AFD6A"/>
<circle cx="28.5857" cy="28.5857" r="28.5857" fill="#FF8A35"/>
<circle cx="28.5857" cy="57.1713" r="28.5857" fill="#FF3535"/>
<circle cx="28.5857" cy="29.9469" r="28.5857" fill="#FF8635"/>
<circle cx="28.5857" cy="31.3079" r="28.5857" fill="#FF8235"/>
<circle cx="28.5857" cy="32.6692" r="28.5857" fill="#FF7E35"/>
<circle cx="28.5857" cy="34.0306" r="28.5857" fill="#FF7A35"/>
<circle cx="28.5857" cy="35.3918" r="28.5857" fill="#FF7635"/>
<circle cx="28.5857" cy="36.7529" r="28.5857" fill="#FF7235"/>
<circle cx="28.5857" cy="38.1143" r="28.5857" fill="#FF6E35"/>
<circle cx="28.5857" cy="39.4755" r="28.5857" fill="#FF6A35"/>
<circle cx="28.5857" cy="40.8368" r="28.5857" fill="#FF6635"/>
<circle cx="28.5857" cy="42.198" r="28.5857" fill="#FF6235"/>
<circle cx="28.5857" cy="43.559" r="28.5857" fill="#FF5E35"/>
<circle cx="28.5857" cy="44.9202" r="28.5857" fill="#FF5935"/>
<circle cx="28.5857" cy="46.2815" r="28.5857" fill="#FF5535"/>
<circle cx="28.5857" cy="47.6425" r="28.5857" fill="#FF5135"/>
<circle cx="28.5857" cy="49.004" r="28.5857" fill="#FF4D35"/>
<circle cx="28.5857" cy="50.3652" r="28.5857" fill="#FF4935"/>
<circle cx="28.5857" cy="51.7264" r="28.5857" fill="#FF4535"/>
<circle cx="28.5857" cy="53.0879" r="28.5857" fill="#FF4135"/>
<circle cx="28.5857" cy="54.4489" r="28.5857" fill="#FF3D35"/>
<circle cx="28.5857" cy="55.8101" r="28.5857" fill="#FF3935"/>
<circle cx="28.5857" cy="28.5857" r="28.5857" fill="#FBAA4C"/>
<circle cx="85.757" cy="28.5857" r="28.5857" fill="#5CFC6A"/>
<circle cx="29.2917" cy="28.5857" r="28.5857" fill="#F9AB4C"/>
<circle cx="29.9973" cy="28.5857" r="28.5857" fill="#F7AC4D"/>
<circle cx="30.7028" cy="28.5857" r="28.5857" fill="#F5AD4D"/>
<circle cx="31.4089" cy="28.5857" r="28.5857" fill="#F3AE4D"/>
<circle cx="32.115" cy="28.5857" r="28.5857" fill="#F1AF4E"/>
<circle cx="32.8205" cy="28.5857" r="28.5857" fill="#EFB04E"/>
<circle cx="33.5266" cy="28.5857" r="28.5857" fill="#EDB14F"/>
<circle cx="34.2321" cy="28.5857" r="28.5857" fill="#EBB24F"/>
<circle cx="34.9382" cy="28.5857" r="28.5857" fill="#E9B34F"/>
<circle cx="35.6438" cy="28.5857" r="28.5857" fill="#E7B450"/>
<circle cx="36.3493" cy="28.5857" r="28.5857" fill="#E5B550"/>
<circle cx="37.0554" cy="28.5857" r="28.5857" fill="#E3B650"/>
<circle cx="37.7614" cy="28.5857" r="28.5857" fill="#E1B751"/>
<circle cx="38.467" cy="28.5857" r="28.5857" fill="#E0B851"/>
<circle cx="39.1731" cy="28.5857" r="28.5857" fill="#DEB951"/>
<circle cx="39.8786" cy="28.5857" r="28.5857" fill="#DCBA52"/>
<circle cx="40.5847" cy="28.5857" r="28.5857" fill="#DABB52"/>
<circle cx="41.2902" cy="28.5857" r="28.5857" fill="#D8BC53"/>
<circle cx="41.9963" cy="28.5857" r="28.5857" fill="#D6BD53"/>
<circle cx="42.7019" cy="28.5857" r="28.5857" fill="#D4BE53"/>
<circle cx="43.4079" cy="28.5857" r="28.5857" fill="#D2BF54"/>
<circle cx="44.114" cy="28.5857" r="28.5857" fill="#D0C054"/>
<circle cx="44.8195" cy="28.5857" r="28.5857" fill="#CEC154"/>
<circle cx="45.5251" cy="28.5857" r="28.5857" fill="#CCC255"/>
<circle cx="46.2312" cy="28.5857" r="28.5857" fill="#CAC355"/>
<circle cx="46.9367" cy="28.5857" r="28.5857" fill="#C8C456"/>
<circle cx="47.6428" cy="28.5857" r="28.5857" fill="#C6C556"/>
<circle cx="48.3484" cy="28.5857" r="28.5857" fill="#C4C656"/>
<circle cx="49.0544" cy="28.5857" r="28.5857" fill="#C2C757"/>
<circle cx="49.7605" cy="28.5857" r="28.5857" fill="#C0C857"/>
<circle cx="50.466" cy="28.5857" r="28.5857" fill="#BEC957"/>
<circle cx="51.1721" cy="28.5857" r="28.5857" fill="#BCCA58"/>
<circle cx="51.8776" cy="28.5857" r="28.5857" fill="#BACB58"/>
<circle cx="52.5837" cy="28.5857" r="28.5857" fill="#B8CC58"/>
<circle cx="53.2893" cy="28.5857" r="28.5857" fill="#B6CD59"/>
<circle cx="53.9948" cy="28.5857" r="28.5857" fill="#B4CE59"/>
<circle cx="54.7009" cy="28.5857" r="28.5857" fill="#B2CF5A"/>
<circle cx="55.4069" cy="28.5857" r="28.5857" fill="#B0D05A"/>
<circle cx="56.1125" cy="28.5857" r="28.5857" fill="#AED15A"/>
<circle cx="56.8186" cy="28.5857" r="28.5857" fill="#ACD25B"/>
<circle cx="57.5241" cy="28.5857" r="28.5857" fill="#ABD35B"/>
<circle cx="58.2302" cy="28.5857" r="28.5857" fill="#A9D55B"/>
<circle cx="58.9358" cy="28.5857" r="28.5857" fill="#A7D65C"/>
<circle cx="59.6418" cy="28.5857" r="28.5857" fill="#A5D75C"/>
<circle cx="60.3474" cy="28.5857" r="28.5857" fill="#A3D85C"/>
<circle cx="61.0534" cy="28.5857" r="28.5857" fill="#A1D95D"/>
<circle cx="61.759" cy="28.5857" r="28.5857" fill="#9FDA5D"/>
<circle cx="62.465" cy="28.5857" r="28.5857" fill="#9DDB5E"/>
<circle cx="63.1706" cy="28.5857" r="28.5857" fill="#9BDC5E"/>
<circle cx="63.8767" cy="28.5857" r="28.5857" fill="#99DD5E"/>
<circle cx="64.5822" cy="28.5857" r="28.5857" fill="#97DE5F"/>
<circle cx="65.2883" cy="28.5857" r="28.5857" fill="#95DF5F"/>
<circle cx="65.9939" cy="28.5857" r="28.5857" fill="#93E05F"/>
<circle cx="66.6999" cy="28.5857" r="28.5857" fill="#91E160"/>
<circle cx="67.406" cy="28.5857" r="28.5857" fill="#8FE260"/>
<circle cx="68.1115" cy="28.5857" r="28.5857" fill="#8DE360"/>
<circle cx="68.8171" cy="28.5857" r="28.5857" fill="#8BE461"/>
<circle cx="69.5232" cy="28.5857" r="28.5857" fill="#89E561"/>
<circle cx="70.2287" cy="28.5857" r="28.5857" fill="#87E662"/>
<circle cx="70.9348" cy="28.5857" r="28.5857" fill="#85E762"/>
<circle cx="71.6403" cy="28.5857" r="28.5857" fill="#83E862"/>
<circle cx="72.3464" cy="28.5857" r="28.5857" fill="#81E963"/>
<circle cx="73.0525" cy="28.5857" r="28.5857" fill="#7FEA63"/>
<circle cx="73.758" cy="28.5857" r="28.5857" fill="#7DEB63"/>
<circle cx="74.4641" cy="28.5857" r="28.5857" fill="#7BEC64"/>
<circle cx="75.1696" cy="28.5857" r="28.5857" fill="#79ED64"/>
<circle cx="75.8757" cy="28.5857" r="28.5857" fill="#77EE65"/>
<circle cx="76.5813" cy="28.5857" r="28.5857" fill="#76EF65"/>
<circle cx="77.2873" cy="28.5857" r="28.5857" fill="#74F065"/>
<circle cx="77.9929" cy="28.5857" r="28.5857" fill="#72F166"/>
<circle cx="78.6989" cy="28.5857" r="28.5857" fill="#70F266"/>
<circle cx="79.4045" cy="28.5857" r="28.5857" fill="#6EF366"/>
<circle cx="80.1106" cy="28.5857" r="28.5857" fill="#6CF467"/>
<circle cx="80.8161" cy="28.5857" r="28.5857" fill="#6AF567"/>
<circle cx="81.5222" cy="28.5857" r="28.5857" fill="#68F667"/>
<circle cx="82.2277" cy="28.5857" r="28.5857" fill="#66F768"/>
<circle cx="82.9338" cy="28.5857" r="28.5857" fill="#64F868"/>
<circle cx="83.6394" cy="28.5857" r="28.5857" fill="#62F969"/>
<circle cx="84.3454" cy="28.5857" r="28.5857" fill="#60FA69"/>
<circle cx="85.051" cy="28.5857" r="28.5857" fill="#5EFB69"/>
<path d="M142.066 94.2451C139.595 94.2451 137.81 93.8675 136.711 93.1123C135.613 92.2885 134.926 91.2587 134.652 90.0229C134.446 88.7184 134.343 87.3797 134.343 86.0066V30.1904C134.343 28.8174 134.446 27.5472 134.652 26.3801C134.926 25.1443 135.613 24.1488 136.711 23.3936C137.81 22.5698 139.629 22.1579 142.169 22.1579H167.812C171.862 22.1579 175.467 23.119 178.625 25.0413C181.783 26.9637 184.289 29.5382 186.143 32.765C187.996 35.9918 188.889 39.4931 188.82 43.2691C188.889 44.7795 188.752 46.2556 188.408 47.6974C188.065 49.1391 187.55 50.5465 186.864 51.9196C186.246 53.224 185.456 54.4255 184.495 55.524C185.937 56.8971 187.138 58.4761 188.099 60.2611C189.06 61.9775 189.781 63.7968 190.262 65.7192C190.811 67.6415 191.086 69.5982 191.086 71.5891C191.017 74.7472 190.399 77.7337 189.232 80.5486C188.134 83.2947 186.555 85.6976 184.495 87.7573C182.435 89.7483 180.067 91.3273 177.389 92.4944C174.712 93.6616 171.862 94.2451 168.842 94.2451H142.066ZM149.996 78.6949H167.812C168.979 78.6949 170.146 78.4889 171.313 78.077C172.549 77.5964 173.545 76.7726 174.3 75.6054C175.124 74.3696 175.535 72.6533 175.535 70.4563C175.535 69.0146 175.364 67.8131 175.021 66.852C174.677 65.8908 174.197 65.1699 173.579 64.6894C172.961 64.1401 172.274 63.7625 171.519 63.5566C170.764 63.3506 169.974 63.2133 169.151 63.1446C168.327 63.076 167.537 63.0416 166.782 63.0416H163.796C161.461 63.0416 159.814 62.5611 158.852 61.5999C157.891 60.5701 157.411 58.8194 157.411 56.3478C157.411 53.9449 157.926 52.2629 158.955 51.3017C160.054 50.3405 161.77 49.86 164.105 49.86H167.091C167.778 49.86 168.498 49.8256 169.254 49.757C170.009 49.6883 170.661 49.4824 171.21 49.1391C171.828 48.7958 172.309 48.2466 172.652 47.4914C173.064 46.6675 173.27 45.5691 173.27 44.196C173.27 41.8617 172.686 40.214 171.519 39.2528C170.352 38.223 168.292 37.7081 165.34 37.7081H149.996V78.6949Z" fill="white"/>
<path d="M216.022 94.2451C213.207 94.2451 210.701 94.0735 208.504 93.7302C206.376 93.4556 204.522 92.9064 202.943 92.0825C201.433 91.2587 200.197 90.1259 199.236 88.6841C198.275 87.2424 197.554 85.3887 197.073 83.1231C196.661 80.7888 196.455 77.9397 196.455 74.5756V26.998C196.455 25.6249 196.558 24.3548 196.764 23.1877C197.039 22.0206 197.725 21.0594 198.824 20.3042C199.922 19.549 201.707 19.1714 204.179 19.1714C206.65 19.1714 208.401 19.549 209.431 20.3042C210.529 21.0594 211.216 22.0206 211.491 23.1877C211.765 24.3548 211.903 25.6249 211.903 26.998V73.8547C211.903 74.9532 211.937 75.88 212.006 76.6352C212.143 77.3218 212.349 77.871 212.623 78.283C212.967 78.6949 213.413 78.9695 213.962 79.1068C214.511 79.2441 215.232 79.3128 216.125 79.3128C216.949 79.3128 217.773 79.4158 218.596 79.6217C219.489 79.8277 220.244 80.4456 220.862 81.4754C221.48 82.5052 221.789 84.2216 221.789 86.6245C221.789 89.096 221.48 90.8811 220.862 91.9795C220.244 93.078 219.489 93.7302 218.596 93.9362C217.773 94.1422 216.914 94.2451 216.022 94.2451Z" fill="white"/>
<path d="M246.3 94.1422C243.142 94.1422 240.156 93.5243 237.341 92.2885C234.595 91.0527 232.192 89.3363 230.132 87.1394C228.072 84.8738 226.459 82.2306 225.292 79.2098C224.193 76.1203 223.644 72.7563 223.644 69.1176V50.4779C223.644 49.1048 223.781 47.8347 224.056 46.6675C224.331 45.5004 224.983 44.5392 226.013 43.784C227.111 43.0288 228.931 42.6512 231.471 42.6512C234.011 42.6512 235.796 43.0288 236.826 43.784C237.924 44.5392 238.576 45.5347 238.782 46.7705C239.057 47.9376 239.194 49.2078 239.194 50.5808V69.1176C239.194 71.1086 239.538 72.8592 240.224 74.3696C240.979 75.8114 242.044 76.9099 243.417 77.6651C244.858 78.4203 246.54 78.7979 248.463 78.7979C250.454 78.7979 252.136 78.4203 253.509 77.6651C254.951 76.8412 256.049 75.7084 256.804 74.2667C257.628 72.8249 258.04 71.1086 258.04 69.1176V50.3749C258.04 49.0018 258.177 47.7317 258.452 46.5646C258.727 45.3974 259.379 44.4706 260.409 43.784C261.507 43.0288 263.326 42.6512 265.867 42.6512C268.407 42.6512 270.192 43.0288 271.222 43.784C272.32 44.5392 272.972 45.5347 273.178 46.7705C273.453 47.9376 273.59 49.1734 273.59 50.4779V86.7275C273.59 88.0319 273.453 89.2677 273.178 90.4348C272.972 91.5333 272.32 92.4258 271.222 93.1123C270.123 93.7989 268.338 94.1422 265.867 94.1422C264.013 94.1422 262.571 93.9362 261.541 93.5243C260.512 93.1123 259.756 92.5974 259.276 91.9795C258.795 91.3616 258.486 90.7094 258.349 90.0229C258.28 89.3363 258.246 88.7184 258.246 88.1692L259.585 87.0364C259.379 87.311 258.933 87.8259 258.246 88.5811C257.559 89.3363 256.633 90.1602 255.465 91.0527C254.367 91.8766 253.063 92.5974 251.552 93.2153C250.042 93.8332 248.291 94.1422 246.3 94.1422Z" fill="white"/>
<path d="M305.264 95.172C300.459 95.172 296.305 94.3824 292.804 92.8034C289.371 91.2243 286.556 89.1647 284.359 86.6245C282.162 84.0156 280.514 81.1321 279.416 77.974C278.386 74.8159 277.871 71.6578 277.871 68.4997C277.871 63.3506 279.038 58.7851 281.373 54.8031C283.707 50.8211 286.934 47.6974 291.053 45.4317C295.172 43.0975 299.909 41.9304 305.264 41.9304C309.246 41.9304 312.679 42.5826 315.563 43.887C318.515 45.1228 320.918 46.7705 322.771 48.8302C324.694 50.8211 326.101 52.9838 326.994 55.318C327.955 57.6523 328.435 59.8835 328.435 62.0118C328.435 65.7878 327.509 68.6027 325.655 70.4563C323.87 72.2413 321.57 73.1339 318.755 73.1339H294.245C294.383 74.9189 295.001 76.4293 296.099 77.6651C297.266 78.9008 298.708 79.862 300.424 80.5486C302.141 81.2351 303.96 81.5784 305.882 81.5784C307.53 81.5784 308.972 81.5097 310.208 81.3724C311.443 81.1664 312.507 80.9262 313.4 80.6515C314.293 80.3083 315.116 79.9993 315.872 79.7247C316.627 79.3814 317.279 79.1068 317.828 78.9008C318.446 78.6949 319.03 78.5576 319.579 78.4889C320.609 78.4203 321.536 78.7292 322.359 79.4157C323.252 80.0336 324.041 80.9948 324.728 82.2992C325.209 83.0544 325.518 83.7753 325.655 84.4619C325.861 85.1484 325.964 85.835 325.964 86.5215C325.964 88.1692 325.106 89.6453 323.389 90.9497C321.742 92.2542 319.373 93.284 316.283 94.0392C313.263 94.7944 309.59 95.172 305.264 95.172ZM294.245 64.6894H310.517C311.615 64.6894 312.405 64.5177 312.885 64.1744C313.434 63.7625 313.709 63.0073 313.709 61.9088C313.709 60.6731 313.331 59.6089 312.576 58.7164C311.821 57.7552 310.791 57.0344 309.487 56.5538C308.251 56.0046 306.809 55.7299 305.161 55.7299C303.033 55.7299 301.145 56.1419 299.497 56.9657C297.85 57.7896 296.545 58.888 295.584 60.2611C294.692 61.6342 294.245 63.1103 294.245 64.6894Z" fill="white"/>
<path d="M338.642 94.2451C336.514 94.2451 334.694 93.5243 333.184 92.0825C331.742 90.5721 331.021 88.7184 331.021 86.5215C331.021 85.4917 331.193 84.4962 331.536 83.535C331.948 82.5739 332.566 81.7157 333.39 80.9605L356.664 58.2015H341.01C339.706 58.2015 338.436 58.0985 337.2 57.8926C336.033 57.6179 335.072 56.9314 334.317 55.8329C333.561 54.7344 333.184 52.9494 333.184 50.4779C333.184 47.9376 333.561 46.1526 334.317 45.1228C335.072 44.0243 336.033 43.3721 337.2 43.1662C338.436 42.8915 339.706 42.7542 341.01 42.7542H373.244C375.441 42.7542 377.26 43.4751 378.702 44.9168C380.143 46.3586 380.864 48.1779 380.864 50.3749C380.864 51.4734 380.658 52.5032 380.246 53.4643C379.903 54.4255 379.388 55.215 378.702 55.8329L355.84 78.6949H374.479C375.853 78.6949 377.123 78.8322 378.29 79.1068C379.457 79.3814 380.384 80.068 381.07 81.1664C381.825 82.2649 382.203 84.0843 382.203 86.6245C382.203 89.096 381.825 90.8811 381.07 91.9795C380.315 93.078 379.354 93.7302 378.187 93.9362C377.02 94.1422 375.75 94.2451 374.376 94.2451H338.642Z" fill="white"/>
</svg>
