<svg width="383" height="115" viewBox="0 0 383 115" fill="none" xmlns="http://www.w3.org/2000/svg">
<circle cx="85.757" cy="86.1013" r="28.5857" fill="#38FFFF"/>
<circle cx="57.1716" cy="86.1013" r="28.5857" fill="#36ABFF"/>
<circle cx="84.3962" cy="86.1013" r="28.5857" fill="#38FBFF"/>
<circle cx="83.0349" cy="86.1013" r="28.5857" fill="#38F7FF"/>
<circle cx="81.6735" cy="86.1013" r="28.5857" fill="#38F3FF"/>
<circle cx="80.3122" cy="86.1013" r="28.5857" fill="#38EFFF"/>
<circle cx="78.9509" cy="86.1013" r="28.5857" fill="#38EBFF"/>
<circle cx="77.59" cy="86.1013" r="28.5857" fill="#38E7FF"/>
<circle cx="76.2287" cy="86.1013" r="28.5857" fill="#38E3FF"/>
<circle cx="74.8674" cy="86.1013" r="28.5857" fill="#38DFFF"/>
<circle cx="73.5061" cy="86.1013" r="28.5857" fill="#37DBFF"/>
<circle cx="72.1452" cy="86.1013" r="28.5857" fill="#37D7FF"/>
<circle cx="70.7839" cy="86.1013" r="28.5857" fill="#37D3FF"/>
<circle cx="69.4226" cy="86.1013" r="28.5857" fill="#37CFFF"/>
<circle cx="68.0612" cy="86.1013" r="28.5857" fill="#37CBFF"/>
<circle cx="66.6999" cy="86.1013" r="28.5857" fill="#37C7FF"/>
<circle cx="65.3391" cy="86.1013" r="28.5857" fill="#37C3FF"/>
<circle cx="63.9777" cy="86.1013" r="28.5857" fill="#37BFFF"/>
<circle cx="62.6164" cy="86.1013" r="28.5857" fill="#37BBFF"/>
<circle cx="61.2551" cy="86.1013" r="28.5857" fill="#36B7FF"/>
<circle cx="59.8942" cy="86.1013" r="28.5857" fill="#36B3FF"/>
<circle cx="58.5329" cy="86.1013" r="28.5857" fill="#36AFFF"/>
<circle cx="57.1711" cy="86.1013" r="28.5857" fill="#36ABFF"/>
<circle cx="28.5857" cy="86.1013" r="28.5857" fill="#CB36FF"/>
<circle cx="55.8103" cy="86.1013" r="28.5857" fill="#3DA5FF"/>
<circle cx="54.4489" cy="86.1013" r="28.5857" fill="#44A0FF"/>
<circle cx="53.0876" cy="86.1013" r="28.5857" fill="#4B9AFF"/>
<circle cx="51.7263" cy="86.1013" r="28.5857" fill="#5294FF"/>
<circle cx="50.365" cy="86.1013" r="28.5857" fill="#5A8FFF"/>
<circle cx="49.0041" cy="86.1013" r="28.5857" fill="#6189FF"/>
<circle cx="47.6428" cy="86.1013" r="28.5857" fill="#6884FF"/>
<circle cx="46.2815" cy="86.1013" r="28.5857" fill="#6F7EFF"/>
<circle cx="44.9206" cy="86.1013" r="28.5857" fill="#7679FF"/>
<circle cx="43.5593" cy="86.1013" r="28.5857" fill="#7D73FF"/>
<circle cx="42.198" cy="86.1013" r="28.5857" fill="#846EFF"/>
<circle cx="40.8366" cy="86.1013" r="28.5857" fill="#8B68FF"/>
<circle cx="39.4753" cy="86.1013" r="28.5857" fill="#9263FF"/>
<circle cx="38.1145" cy="86.1013" r="28.5857" fill="#995DFF"/>
<circle cx="36.7531" cy="86.1013" r="28.5857" fill="#A057FF"/>
<circle cx="35.3918" cy="86.1013" r="28.5857" fill="#A752FF"/>
<circle cx="34.0305" cy="86.1013" r="28.5857" fill="#AE4CFF"/>
<circle cx="32.6692" cy="86.1013" r="28.5857" fill="#B647FF"/>
<circle cx="31.3083" cy="86.1013" r="28.5857" fill="#BD41FF"/>
<circle cx="29.947" cy="86.1013" r="28.5857" fill="#C43CFF"/>
<circle cx="28.5857" cy="57.5145" r="28.5857" fill="#FF3535"/>
<circle cx="28.5857" cy="86.1002" r="28.5857" fill="#CB36FF"/>
<circle cx="28.5857" cy="84.739" r="28.5857" fill="#CD36F5"/>
<circle cx="28.5857" cy="83.3778" r="28.5857" fill="#D036EC"/>
<circle cx="28.5857" cy="82.0167" r="28.5857" fill="#D236E2"/>
<circle cx="28.5857" cy="80.6552" r="28.5857" fill="#D536D9"/>
<circle cx="28.5857" cy="79.294" r="28.5857" fill="#D736CF"/>
<circle cx="28.5857" cy="77.9328" r="28.5857" fill="#DA36C5"/>
<circle cx="28.5857" cy="76.5714" r="28.5857" fill="#DC36BC"/>
<circle cx="28.5857" cy="75.2103" r="28.5857" fill="#DF36B2"/>
<circle cx="28.5857" cy="73.8491" r="28.5857" fill="#E136A8"/>
<circle cx="28.5857" cy="72.4879" r="28.5857" fill="#E4369F"/>
<circle cx="28.5857" cy="71.1268" r="28.5857" fill="#E63695"/>
<circle cx="28.5857" cy="69.7656" r="28.5857" fill="#E9368C"/>
<circle cx="28.5857" cy="68.4044" r="28.5857" fill="#EB3682"/>
<circle cx="28.5857" cy="67.0432" r="28.5857" fill="#EE3578"/>
<circle cx="28.5857" cy="65.6817" r="28.5857" fill="#F0356F"/>
<circle cx="28.5857" cy="64.3206" r="28.5857" fill="#F33565"/>
<circle cx="28.5857" cy="62.9594" r="28.5857" fill="#F5355C"/>
<circle cx="28.5857" cy="61.598" r="28.5857" fill="#F83552"/>
<circle cx="28.5857" cy="60.2368" r="28.5857" fill="#FA3548"/>
<circle cx="28.5857" cy="58.8757" r="28.5857" fill="#FD353F"/>
<circle cx="28.5857" cy="28.9292" r="28.5857" fill="#5AFD6A"/>
<circle cx="28.5857" cy="28.9292" r="28.5857" fill="#FF8A35"/>
<circle cx="28.5857" cy="57.5149" r="28.5857" fill="#FF3535"/>
<circle cx="28.5857" cy="30.2904" r="28.5857" fill="#FF8635"/>
<circle cx="28.5857" cy="31.6515" r="28.5857" fill="#FF8235"/>
<circle cx="28.5857" cy="33.0127" r="28.5857" fill="#FF7E35"/>
<circle cx="28.5857" cy="34.3741" r="28.5857" fill="#FF7A35"/>
<circle cx="28.5857" cy="35.7353" r="28.5857" fill="#FF7635"/>
<circle cx="28.5857" cy="37.0964" r="28.5857" fill="#FF7235"/>
<circle cx="28.5857" cy="38.4578" r="28.5857" fill="#FF6E35"/>
<circle cx="28.5857" cy="39.8191" r="28.5857" fill="#FF6A35"/>
<circle cx="28.5857" cy="41.1803" r="28.5857" fill="#FF6635"/>
<circle cx="28.5857" cy="42.5415" r="28.5857" fill="#FF6235"/>
<circle cx="28.5857" cy="43.9025" r="28.5857" fill="#FF5E35"/>
<circle cx="28.5857" cy="45.2638" r="28.5857" fill="#FF5935"/>
<circle cx="28.5857" cy="46.625" r="28.5857" fill="#FF5535"/>
<circle cx="28.5857" cy="47.986" r="28.5857" fill="#FF5135"/>
<circle cx="28.5857" cy="49.3475" r="28.5857" fill="#FF4D35"/>
<circle cx="28.5857" cy="50.7087" r="28.5857" fill="#FF4935"/>
<circle cx="28.5857" cy="52.0699" r="28.5857" fill="#FF4535"/>
<circle cx="28.5857" cy="53.4314" r="28.5857" fill="#FF4135"/>
<circle cx="28.5857" cy="54.7924" r="28.5857" fill="#FF3D35"/>
<circle cx="28.5857" cy="56.1536" r="28.5857" fill="#FF3935"/>
<circle cx="28.5857" cy="28.9292" r="28.5857" fill="#FBAA4C"/>
<circle cx="85.757" cy="28.9292" r="28.5857" fill="#5CFC6A"/>
<circle cx="29.2917" cy="28.9292" r="28.5857" fill="#F9AB4C"/>
<circle cx="29.9973" cy="28.9292" r="28.5857" fill="#F7AC4D"/>
<circle cx="30.7028" cy="28.9292" r="28.5857" fill="#F5AD4D"/>
<circle cx="31.4089" cy="28.9292" r="28.5857" fill="#F3AE4D"/>
<circle cx="32.115" cy="28.9292" r="28.5857" fill="#F1AF4E"/>
<circle cx="32.8205" cy="28.9292" r="28.5857" fill="#EFB04E"/>
<circle cx="33.5266" cy="28.9292" r="28.5857" fill="#EDB14F"/>
<circle cx="34.2321" cy="28.9292" r="28.5857" fill="#EBB24F"/>
<circle cx="34.9382" cy="28.9292" r="28.5857" fill="#E9B34F"/>
<circle cx="35.6438" cy="28.9292" r="28.5857" fill="#E7B450"/>
<circle cx="36.3493" cy="28.9292" r="28.5857" fill="#E5B550"/>
<circle cx="37.0554" cy="28.9292" r="28.5857" fill="#E3B650"/>
<circle cx="37.7614" cy="28.9292" r="28.5857" fill="#E1B751"/>
<circle cx="38.467" cy="28.9292" r="28.5857" fill="#E0B851"/>
<circle cx="39.1731" cy="28.9292" r="28.5857" fill="#DEB951"/>
<circle cx="39.8786" cy="28.9292" r="28.5857" fill="#DCBA52"/>
<circle cx="40.5847" cy="28.9292" r="28.5857" fill="#DABB52"/>
<circle cx="41.2902" cy="28.9292" r="28.5857" fill="#D8BC53"/>
<circle cx="41.9963" cy="28.9292" r="28.5857" fill="#D6BD53"/>
<circle cx="42.7019" cy="28.9292" r="28.5857" fill="#D4BE53"/>
<circle cx="43.4079" cy="28.9292" r="28.5857" fill="#D2BF54"/>
<circle cx="44.114" cy="28.9292" r="28.5857" fill="#D0C054"/>
<circle cx="44.8195" cy="28.9292" r="28.5857" fill="#CEC154"/>
<circle cx="45.5251" cy="28.9292" r="28.5857" fill="#CCC255"/>
<circle cx="46.2312" cy="28.9292" r="28.5857" fill="#CAC355"/>
<circle cx="46.9367" cy="28.9292" r="28.5857" fill="#C8C456"/>
<circle cx="47.6428" cy="28.9292" r="28.5857" fill="#C6C556"/>
<circle cx="48.3484" cy="28.9292" r="28.5857" fill="#C4C656"/>
<circle cx="49.0544" cy="28.9292" r="28.5857" fill="#C2C757"/>
<circle cx="49.7605" cy="28.9292" r="28.5857" fill="#C0C857"/>
<circle cx="50.466" cy="28.9292" r="28.5857" fill="#BEC957"/>
<circle cx="51.1721" cy="28.9292" r="28.5857" fill="#BCCA58"/>
<circle cx="51.8776" cy="28.9292" r="28.5857" fill="#BACB58"/>
<circle cx="52.5837" cy="28.9292" r="28.5857" fill="#B8CC58"/>
<circle cx="53.2893" cy="28.9292" r="28.5857" fill="#B6CD59"/>
<circle cx="53.9948" cy="28.9292" r="28.5857" fill="#B4CE59"/>
<circle cx="54.7009" cy="28.9292" r="28.5857" fill="#B2CF5A"/>
<circle cx="55.4069" cy="28.9292" r="28.5857" fill="#B0D05A"/>
<circle cx="56.1125" cy="28.9292" r="28.5857" fill="#AED15A"/>
<circle cx="56.8186" cy="28.9292" r="28.5857" fill="#ACD25B"/>
<circle cx="57.5241" cy="28.9292" r="28.5857" fill="#ABD35B"/>
<circle cx="58.2302" cy="28.9292" r="28.5857" fill="#A9D55B"/>
<circle cx="58.9358" cy="28.9292" r="28.5857" fill="#A7D65C"/>
<circle cx="59.6418" cy="28.9292" r="28.5857" fill="#A5D75C"/>
<circle cx="60.3474" cy="28.9292" r="28.5857" fill="#A3D85C"/>
<circle cx="61.0534" cy="28.9292" r="28.5857" fill="#A1D95D"/>
<circle cx="61.759" cy="28.9292" r="28.5857" fill="#9FDA5D"/>
<circle cx="62.465" cy="28.9292" r="28.5857" fill="#9DDB5E"/>
<circle cx="63.1706" cy="28.9292" r="28.5857" fill="#9BDC5E"/>
<circle cx="63.8767" cy="28.9292" r="28.5857" fill="#99DD5E"/>
<circle cx="64.5822" cy="28.9292" r="28.5857" fill="#97DE5F"/>
<circle cx="65.2883" cy="28.9292" r="28.5857" fill="#95DF5F"/>
<circle cx="65.9939" cy="28.9292" r="28.5857" fill="#93E05F"/>
<circle cx="66.6999" cy="28.9292" r="28.5857" fill="#91E160"/>
<circle cx="67.406" cy="28.9292" r="28.5857" fill="#8FE260"/>
<circle cx="68.1115" cy="28.9292" r="28.5857" fill="#8DE360"/>
<circle cx="68.8171" cy="28.9292" r="28.5857" fill="#8BE461"/>
<circle cx="69.5232" cy="28.9292" r="28.5857" fill="#89E561"/>
<circle cx="70.2287" cy="28.9292" r="28.5857" fill="#87E662"/>
<circle cx="70.9348" cy="28.9292" r="28.5857" fill="#85E762"/>
<circle cx="71.6403" cy="28.9292" r="28.5857" fill="#83E862"/>
<circle cx="72.3464" cy="28.9292" r="28.5857" fill="#81E963"/>
<circle cx="73.0525" cy="28.9292" r="28.5857" fill="#7FEA63"/>
<circle cx="73.758" cy="28.9292" r="28.5857" fill="#7DEB63"/>
<circle cx="74.4641" cy="28.9292" r="28.5857" fill="#7BEC64"/>
<circle cx="75.1696" cy="28.9292" r="28.5857" fill="#79ED64"/>
<circle cx="75.8757" cy="28.9292" r="28.5857" fill="#77EE65"/>
<circle cx="76.5813" cy="28.9292" r="28.5857" fill="#76EF65"/>
<circle cx="77.2873" cy="28.9292" r="28.5857" fill="#74F065"/>
<circle cx="77.9929" cy="28.9292" r="28.5857" fill="#72F166"/>
<circle cx="78.6989" cy="28.9292" r="28.5857" fill="#70F266"/>
<circle cx="79.4045" cy="28.9292" r="28.5857" fill="#6EF366"/>
<circle cx="80.1106" cy="28.9292" r="28.5857" fill="#6CF467"/>
<circle cx="80.8161" cy="28.9292" r="28.5857" fill="#6AF567"/>
<circle cx="81.5222" cy="28.9292" r="28.5857" fill="#68F667"/>
<circle cx="82.2277" cy="28.9292" r="28.5857" fill="#66F768"/>
<circle cx="82.9338" cy="28.9292" r="28.5857" fill="#64F868"/>
<circle cx="83.6394" cy="28.9292" r="28.5857" fill="#62F969"/>
<circle cx="84.3454" cy="28.9292" r="28.5857" fill="#60FA69"/>
<circle cx="85.051" cy="28.9292" r="28.5857" fill="#5EFB69"/>
<path d="M142.066 94.5886C139.595 94.5886 137.81 94.211 136.711 93.4558C135.613 92.632 134.926 91.6022 134.652 90.3664C134.446 89.0619 134.343 87.7232 134.343 86.3501V30.5339C134.343 29.1609 134.446 27.8907 134.652 26.7236C134.926 25.4878 135.613 24.4923 136.711 23.7371C137.81 22.9133 139.629 22.5014 142.169 22.5014H167.812C171.862 22.5014 175.467 23.4625 178.625 25.3849C181.783 27.3072 184.289 29.8817 186.143 33.1085C187.996 36.3353 188.889 39.8366 188.82 43.6126C188.889 45.123 188.752 46.5991 188.408 48.0409C188.065 49.4826 187.55 50.89 186.864 52.2631C186.246 53.5676 185.456 54.769 184.495 55.8675C185.937 57.2406 187.138 58.8196 188.099 60.6046C189.06 62.321 189.781 64.1403 190.262 66.0627C190.811 67.985 191.086 69.9417 191.086 71.9326C191.017 75.0907 190.399 78.0772 189.232 80.8921C188.134 83.6382 186.555 86.0411 184.495 88.1008C182.435 90.0918 180.067 91.6708 177.389 92.838C174.712 94.0051 171.862 94.5886 168.842 94.5886H142.066ZM149.996 79.0384H167.812C168.979 79.0384 170.146 78.8324 171.313 78.4205C172.549 77.9399 173.545 77.1161 174.3 75.9489C175.124 74.7131 175.535 72.9968 175.535 70.7998C175.535 69.3581 175.364 68.1566 175.021 67.1955C174.677 66.2343 174.197 65.5134 173.579 65.0329C172.961 64.4836 172.274 64.106 171.519 63.9001C170.764 63.6941 169.974 63.5568 169.151 63.4881C168.327 63.4195 167.537 63.3852 166.782 63.3852H163.796C161.461 63.3852 159.814 62.9046 158.852 61.9434C157.891 60.9136 157.411 59.1629 157.411 56.6913C157.411 54.2884 157.926 52.6064 158.955 51.6452C160.054 50.6841 161.77 50.2035 164.105 50.2035H167.091C167.778 50.2035 168.498 50.1691 169.254 50.1005C170.009 50.0318 170.661 49.8259 171.21 49.4826C171.828 49.1393 172.309 48.5901 172.652 47.8349C173.064 47.011 173.27 45.9126 173.27 44.5395C173.27 42.2052 172.686 40.5575 171.519 39.5963C170.352 38.5665 168.292 38.0516 165.34 38.0516H149.996V79.0384Z" fill="black"/>
<path d="M216.022 94.5886C213.207 94.5886 210.701 94.417 208.504 94.0737C206.376 93.7991 204.522 93.2499 202.943 92.426C201.433 91.6022 200.197 90.4694 199.236 89.0276C198.275 87.5859 197.554 85.7322 197.073 83.4666C196.661 81.1324 196.455 78.2832 196.455 74.9191V27.3415C196.455 25.9684 196.558 24.6983 196.764 23.5312C197.039 22.3641 197.725 21.4029 198.824 20.6477C199.922 19.8925 201.707 19.5149 204.179 19.5149C206.65 19.5149 208.401 19.8925 209.431 20.6477C210.529 21.4029 211.216 22.3641 211.491 23.5312C211.765 24.6983 211.903 25.9684 211.903 27.3415V74.1982C211.903 75.2967 211.937 76.2236 212.006 76.9788C212.143 77.6653 212.349 78.2145 212.623 78.6265C212.967 79.0384 213.413 79.313 213.962 79.4503C214.511 79.5876 215.232 79.6563 216.125 79.6563C216.949 79.6563 217.773 79.7593 218.596 79.9652C219.489 80.1712 220.244 80.7891 220.862 81.8189C221.48 82.8487 221.789 84.5651 221.789 86.968C221.789 89.4396 221.48 91.2246 220.862 92.323C220.244 93.4215 219.489 94.0737 218.596 94.2797C217.773 94.4857 216.914 94.5886 216.022 94.5886Z" fill="black"/>
<path d="M246.3 94.4857C243.142 94.4857 240.156 93.8678 237.341 92.632C234.595 91.3962 232.192 89.6798 230.132 87.4829C228.072 85.2173 226.459 82.5741 225.292 79.5533C224.193 76.4638 223.644 73.0998 223.644 69.4611V50.8214C223.644 49.4483 223.781 48.1782 224.056 47.011C224.331 45.8439 224.983 44.8827 226.013 44.1275C227.111 43.3723 228.931 42.9947 231.471 42.9947C234.011 42.9947 235.796 43.3723 236.826 44.1275C237.924 44.8827 238.576 45.8782 238.782 47.114C239.057 48.2811 239.194 49.5513 239.194 50.9243V69.4611C239.194 71.4521 239.538 73.2027 240.224 74.7132C240.979 76.1549 242.044 77.2534 243.417 78.0086C244.858 78.7638 246.54 79.1414 248.463 79.1414C250.454 79.1414 252.136 78.7638 253.509 78.0086C254.951 77.1847 256.049 76.0519 256.804 74.6102C257.628 73.1684 258.04 71.4521 258.04 69.4611V50.7184C258.04 49.3453 258.177 48.0752 258.452 46.9081C258.727 45.7409 259.379 44.8141 260.409 44.1275C261.507 43.3723 263.326 42.9947 265.867 42.9947C268.407 42.9947 270.192 43.3723 271.222 44.1275C272.32 44.8827 272.972 45.8782 273.178 47.114C273.453 48.2811 273.59 49.5169 273.59 50.8214V87.071C273.59 88.3754 273.453 89.6112 273.178 90.7783C272.972 91.8768 272.32 92.7693 271.222 93.4558C270.123 94.1424 268.338 94.4857 265.867 94.4857C264.013 94.4857 262.571 94.2797 261.541 93.8678C260.512 93.4558 259.756 92.9409 259.276 92.323C258.795 91.7052 258.486 91.0529 258.349 90.3664C258.28 89.6798 258.246 89.0619 258.246 88.5127L259.585 87.3799C259.379 87.6545 258.933 88.1694 258.246 88.9246C257.559 89.6798 256.633 90.5037 255.465 91.3962C254.367 92.2201 253.063 92.9409 251.552 93.5588C250.042 94.1767 248.291 94.4857 246.3 94.4857Z" fill="black"/>
<path d="M305.264 95.5155C300.459 95.5155 296.305 94.726 292.804 93.1469C289.371 91.5678 286.556 89.5082 284.359 86.968C282.162 84.3591 280.514 81.4756 279.416 78.3175C278.386 75.1594 277.871 72.0013 277.871 68.8432C277.871 63.6941 279.038 59.1286 281.373 55.1466C283.707 51.1646 286.934 48.0409 291.053 45.7753C295.172 43.441 299.909 42.2739 305.264 42.2739C309.246 42.2739 312.679 42.9261 315.563 44.2305C318.515 45.4663 320.918 47.114 322.771 49.1737C324.694 51.1646 326.101 53.3273 326.994 55.6615C327.955 57.9958 328.435 60.227 328.435 62.3553C328.435 66.1313 327.509 68.9462 325.655 70.7998C323.87 72.5849 321.57 73.4774 318.755 73.4774H294.245C294.383 75.2624 295.001 76.7728 296.099 78.0086C297.266 79.2444 298.708 80.2055 300.424 80.8921C302.141 81.5786 303.96 81.9219 305.882 81.9219C307.53 81.9219 308.972 81.8532 310.208 81.7159C311.443 81.5099 312.507 81.2697 313.4 80.995C314.293 80.6518 315.116 80.3428 315.872 80.0682C316.627 79.7249 317.279 79.4503 317.828 79.2443C318.446 79.0384 319.03 78.9011 319.579 78.8324C320.609 78.7638 321.536 79.0727 322.359 79.7593C323.252 80.3771 324.041 81.3383 324.728 82.6427C325.209 83.3979 325.518 84.1188 325.655 84.8054C325.861 85.4919 325.964 86.1785 325.964 86.865C325.964 88.5127 325.106 89.9888 323.389 91.2932C321.742 92.5977 319.373 93.6275 316.283 94.3827C313.263 95.1379 309.59 95.5155 305.264 95.5155ZM294.245 65.0329H310.517C311.615 65.0329 312.405 64.8612 312.885 64.518C313.434 64.106 313.709 63.3508 313.709 62.2523C313.709 61.0166 313.331 59.9524 312.576 59.0599C311.821 58.0988 310.791 57.3779 309.487 56.8973C308.251 56.3481 306.809 56.0734 305.161 56.0734C303.033 56.0734 301.145 56.4854 299.497 57.3092C297.85 58.1331 296.545 59.2316 295.584 60.6046C294.692 61.9777 294.245 63.4538 294.245 65.0329Z" fill="black"/>
<path d="M338.642 94.5886C336.514 94.5886 334.694 93.8678 333.184 92.426C331.742 90.9156 331.021 89.062 331.021 86.865C331.021 85.8352 331.193 84.8397 331.536 83.8785C331.948 82.9174 332.566 82.0592 333.39 81.304L356.664 58.545H341.01C339.706 58.545 338.436 58.442 337.2 58.2361C336.033 57.9614 335.072 57.2749 334.317 56.1764C333.561 55.0779 333.184 53.2929 333.184 50.8214C333.184 48.2811 333.561 46.4961 334.317 45.4663C335.072 44.3678 336.033 43.7156 337.2 43.5097C338.436 43.235 339.706 43.0977 341.01 43.0977H373.244C375.441 43.0977 377.26 43.8186 378.702 45.2603C380.143 46.7021 380.864 48.5214 380.864 50.7184C380.864 51.8169 380.658 52.8467 380.246 53.8078C379.903 54.769 379.388 55.5585 378.702 56.1764L355.84 79.0384H374.479C375.853 79.0384 377.123 79.1757 378.29 79.4503C379.457 79.7249 380.384 80.4115 381.07 81.5099C381.825 82.6084 382.203 84.4278 382.203 86.968C382.203 89.4396 381.825 91.2246 381.07 92.323C380.315 93.4215 379.354 94.0737 378.187 94.2797C377.02 94.4857 375.75 94.5886 374.376 94.5886H338.642Z" fill="black"/>
</svg>
