<svg width="115" height="115" viewBox="0 0 115 115" fill="none" xmlns="http://www.w3.org/2000/svg">
<circle cx="85.757" cy="85.7578" r="28.5857" fill="#38FFFF"/>
<circle cx="57.1716" cy="85.7578" r="28.5857" fill="#36ABFF"/>
<circle cx="84.3962" cy="85.7578" r="28.5857" fill="#38FBFF"/>
<circle cx="83.0349" cy="85.7578" r="28.5857" fill="#38F7FF"/>
<circle cx="81.6735" cy="85.7578" r="28.5857" fill="#38F3FF"/>
<circle cx="80.3122" cy="85.7578" r="28.5857" fill="#38EFFF"/>
<circle cx="78.9509" cy="85.7578" r="28.5857" fill="#38EBFF"/>
<circle cx="77.59" cy="85.7578" r="28.5857" fill="#38E7FF"/>
<circle cx="76.2287" cy="85.7578" r="28.5857" fill="#38E3FF"/>
<circle cx="74.8674" cy="85.7578" r="28.5857" fill="#38DFFF"/>
<circle cx="73.5061" cy="85.7578" r="28.5857" fill="#37DBFF"/>
<circle cx="72.1452" cy="85.7578" r="28.5857" fill="#37D7FF"/>
<circle cx="70.7839" cy="85.7578" r="28.5857" fill="#37D3FF"/>
<circle cx="69.4226" cy="85.7578" r="28.5857" fill="#37CFFF"/>
<circle cx="68.0612" cy="85.7578" r="28.5857" fill="#37CBFF"/>
<circle cx="66.6999" cy="85.7578" r="28.5857" fill="#37C7FF"/>
<circle cx="65.3391" cy="85.7578" r="28.5857" fill="#37C3FF"/>
<circle cx="63.9777" cy="85.7578" r="28.5857" fill="#37BFFF"/>
<circle cx="62.6164" cy="85.7578" r="28.5857" fill="#37BBFF"/>
<circle cx="61.2551" cy="85.7578" r="28.5857" fill="#36B7FF"/>
<circle cx="59.8942" cy="85.7578" r="28.5857" fill="#36B3FF"/>
<circle cx="58.5329" cy="85.7578" r="28.5857" fill="#36AFFF"/>
<circle cx="57.1711" cy="85.7578" r="28.5857" fill="#36ABFF"/>
<circle cx="28.5857" cy="85.7578" r="28.5857" fill="#CB36FF"/>
<circle cx="55.8103" cy="85.7578" r="28.5857" fill="#3DA5FF"/>
<circle cx="54.4489" cy="85.7578" r="28.5857" fill="#44A0FF"/>
<circle cx="53.0876" cy="85.7578" r="28.5857" fill="#4B9AFF"/>
<circle cx="51.7263" cy="85.7578" r="28.5857" fill="#5294FF"/>
<circle cx="50.365" cy="85.7578" r="28.5857" fill="#5A8FFF"/>
<circle cx="49.0041" cy="85.7578" r="28.5857" fill="#6189FF"/>
<circle cx="47.6428" cy="85.7578" r="28.5857" fill="#6884FF"/>
<circle cx="46.2815" cy="85.7578" r="28.5857" fill="#6F7EFF"/>
<circle cx="44.9206" cy="85.7578" r="28.5857" fill="#7679FF"/>
<circle cx="43.5593" cy="85.7578" r="28.5857" fill="#7D73FF"/>
<circle cx="42.198" cy="85.7578" r="28.5857" fill="#846EFF"/>
<circle cx="40.8366" cy="85.7578" r="28.5857" fill="#8B68FF"/>
<circle cx="39.4753" cy="85.7578" r="28.5857" fill="#9263FF"/>
<circle cx="38.1145" cy="85.7578" r="28.5857" fill="#995DFF"/>
<circle cx="36.7531" cy="85.7578" r="28.5857" fill="#A057FF"/>
<circle cx="35.3918" cy="85.7578" r="28.5857" fill="#A752FF"/>
<circle cx="34.0305" cy="85.7578" r="28.5857" fill="#AE4CFF"/>
<circle cx="32.6692" cy="85.7578" r="28.5857" fill="#B647FF"/>
<circle cx="31.3083" cy="85.7578" r="28.5857" fill="#BD41FF"/>
<circle cx="29.947" cy="85.7578" r="28.5857" fill="#C43CFF"/>
<circle cx="28.5857" cy="57.1711" r="28.5857" fill="#FF3535"/>
<circle cx="28.5857" cy="85.7568" r="28.5857" fill="#CB36FF"/>
<circle cx="28.5857" cy="84.3957" r="28.5857" fill="#CD36F5"/>
<circle cx="28.5857" cy="83.0344" r="28.5857" fill="#D036EC"/>
<circle cx="28.5857" cy="81.6733" r="28.5857" fill="#D236E2"/>
<circle cx="28.5857" cy="80.3117" r="28.5857" fill="#D536D9"/>
<circle cx="28.5857" cy="78.9506" r="28.5857" fill="#D736CF"/>
<circle cx="28.5857" cy="77.5896" r="28.5857" fill="#DA36C5"/>
<circle cx="28.5857" cy="76.228" r="28.5857" fill="#DC36BC"/>
<circle cx="28.5857" cy="74.8669" r="28.5857" fill="#DF36B2"/>
<circle cx="28.5857" cy="73.5056" r="28.5857" fill="#E136A8"/>
<circle cx="28.5857" cy="72.1445" r="28.5857" fill="#E4369F"/>
<circle cx="28.5857" cy="70.7834" r="28.5857" fill="#E63695"/>
<circle cx="28.5857" cy="69.4221" r="28.5857" fill="#E9368C"/>
<circle cx="28.5857" cy="68.061" r="28.5857" fill="#EB3682"/>
<circle cx="28.5857" cy="66.6999" r="28.5857" fill="#EE3578"/>
<circle cx="28.5857" cy="65.3383" r="28.5857" fill="#F0356F"/>
<circle cx="28.5857" cy="63.9773" r="28.5857" fill="#F33565"/>
<circle cx="28.5857" cy="62.6162" r="28.5857" fill="#F5355C"/>
<circle cx="28.5857" cy="61.2546" r="28.5857" fill="#F83552"/>
<circle cx="28.5857" cy="59.8935" r="28.5857" fill="#FA3548"/>
<circle cx="28.5857" cy="58.5322" r="28.5857" fill="#FD353F"/>
<circle cx="28.5857" cy="28.5857" r="28.5857" fill="#5AFD6A"/>
<circle cx="28.5857" cy="28.5857" r="28.5857" fill="#FF8A35"/>
<circle cx="28.5857" cy="57.1713" r="28.5857" fill="#FF3535"/>
<circle cx="28.5857" cy="29.9467" r="28.5857" fill="#FF8635"/>
<circle cx="28.5857" cy="31.3081" r="28.5857" fill="#FF8235"/>
<circle cx="28.5857" cy="32.6692" r="28.5857" fill="#FF7E35"/>
<circle cx="28.5857" cy="34.0307" r="28.5857" fill="#FF7A35"/>
<circle cx="28.5857" cy="35.3918" r="28.5857" fill="#FF7635"/>
<circle cx="28.5857" cy="36.7529" r="28.5857" fill="#FF7235"/>
<circle cx="28.5857" cy="38.1145" r="28.5857" fill="#FF6E35"/>
<circle cx="28.5857" cy="39.4755" r="28.5857" fill="#FF6A35"/>
<circle cx="28.5857" cy="40.8366" r="28.5857" fill="#FF6635"/>
<circle cx="28.5857" cy="42.198" r="28.5857" fill="#FF6235"/>
<circle cx="28.5857" cy="43.559" r="28.5857" fill="#FF5E35"/>
<circle cx="28.5857" cy="44.9201" r="28.5857" fill="#FF5935"/>
<circle cx="28.5857" cy="46.2815" r="28.5857" fill="#FF5535"/>
<circle cx="28.5857" cy="47.6425" r="28.5857" fill="#FF5135"/>
<circle cx="28.5857" cy="49.0041" r="28.5857" fill="#FF4D35"/>
<circle cx="28.5857" cy="50.3652" r="28.5857" fill="#FF4935"/>
<circle cx="28.5857" cy="51.7263" r="28.5857" fill="#FF4535"/>
<circle cx="28.5857" cy="53.0879" r="28.5857" fill="#FF4135"/>
<circle cx="28.5857" cy="54.4489" r="28.5857" fill="#FF3D35"/>
<circle cx="28.5857" cy="55.8103" r="28.5857" fill="#FF3935"/>
<circle cx="28.5857" cy="28.5857" r="28.5857" fill="#FBAA4C"/>
<circle cx="85.757" cy="28.5857" r="28.5857" fill="#5CFC6A"/>
<circle cx="29.2917" cy="28.5857" r="28.5857" fill="#F9AB4C"/>
<circle cx="29.9973" cy="28.5857" r="28.5857" fill="#F7AC4D"/>
<circle cx="30.7028" cy="28.5857" r="28.5857" fill="#F5AD4D"/>
<circle cx="31.4089" cy="28.5857" r="28.5857" fill="#F3AE4D"/>
<circle cx="32.115" cy="28.5857" r="28.5857" fill="#F1AF4E"/>
<circle cx="32.8205" cy="28.5857" r="28.5857" fill="#EFB04E"/>
<circle cx="33.5266" cy="28.5857" r="28.5857" fill="#EDB14F"/>
<circle cx="34.2321" cy="28.5857" r="28.5857" fill="#EBB24F"/>
<circle cx="34.9382" cy="28.5857" r="28.5857" fill="#E9B34F"/>
<circle cx="35.6438" cy="28.5857" r="28.5857" fill="#E7B450"/>
<circle cx="36.3493" cy="28.5857" r="28.5857" fill="#E5B550"/>
<circle cx="37.0554" cy="28.5857" r="28.5857" fill="#E3B650"/>
<circle cx="37.7614" cy="28.5857" r="28.5857" fill="#E1B751"/>
<circle cx="38.467" cy="28.5857" r="28.5857" fill="#E0B851"/>
<circle cx="39.1731" cy="28.5857" r="28.5857" fill="#DEB951"/>
<circle cx="39.8786" cy="28.5857" r="28.5857" fill="#DCBA52"/>
<circle cx="40.5847" cy="28.5857" r="28.5857" fill="#DABB52"/>
<circle cx="41.2902" cy="28.5857" r="28.5857" fill="#D8BC53"/>
<circle cx="41.9963" cy="28.5857" r="28.5857" fill="#D6BD53"/>
<circle cx="42.7019" cy="28.5857" r="28.5857" fill="#D4BE53"/>
<circle cx="43.4079" cy="28.5857" r="28.5857" fill="#D2BF54"/>
<circle cx="44.114" cy="28.5857" r="28.5857" fill="#D0C054"/>
<circle cx="44.8195" cy="28.5857" r="28.5857" fill="#CEC154"/>
<circle cx="45.5251" cy="28.5857" r="28.5857" fill="#CCC255"/>
<circle cx="46.2312" cy="28.5857" r="28.5857" fill="#CAC355"/>
<circle cx="46.9367" cy="28.5857" r="28.5857" fill="#C8C456"/>
<circle cx="47.6428" cy="28.5857" r="28.5857" fill="#C6C556"/>
<circle cx="48.3484" cy="28.5857" r="28.5857" fill="#C4C656"/>
<circle cx="49.0544" cy="28.5857" r="28.5857" fill="#C2C757"/>
<circle cx="49.7605" cy="28.5857" r="28.5857" fill="#C0C857"/>
<circle cx="50.466" cy="28.5857" r="28.5857" fill="#BEC957"/>
<circle cx="51.1721" cy="28.5857" r="28.5857" fill="#BCCA58"/>
<circle cx="51.8776" cy="28.5857" r="28.5857" fill="#BACB58"/>
<circle cx="52.5837" cy="28.5857" r="28.5857" fill="#B8CC58"/>
<circle cx="53.2893" cy="28.5857" r="28.5857" fill="#B6CD59"/>
<circle cx="53.9948" cy="28.5857" r="28.5857" fill="#B4CE59"/>
<circle cx="54.7009" cy="28.5857" r="28.5857" fill="#B2CF5A"/>
<circle cx="55.4069" cy="28.5857" r="28.5857" fill="#B0D05A"/>
<circle cx="56.1125" cy="28.5857" r="28.5857" fill="#AED15A"/>
<circle cx="56.8186" cy="28.5857" r="28.5857" fill="#ACD25B"/>
<circle cx="57.5241" cy="28.5857" r="28.5857" fill="#ABD35B"/>
<circle cx="58.2302" cy="28.5857" r="28.5857" fill="#A9D55B"/>
<circle cx="58.9358" cy="28.5857" r="28.5857" fill="#A7D65C"/>
<circle cx="59.6418" cy="28.5857" r="28.5857" fill="#A5D75C"/>
<circle cx="60.3474" cy="28.5857" r="28.5857" fill="#A3D85C"/>
<circle cx="61.0534" cy="28.5857" r="28.5857" fill="#A1D95D"/>
<circle cx="61.759" cy="28.5857" r="28.5857" fill="#9FDA5D"/>
<circle cx="62.465" cy="28.5857" r="28.5857" fill="#9DDB5E"/>
<circle cx="63.1706" cy="28.5857" r="28.5857" fill="#9BDC5E"/>
<circle cx="63.8767" cy="28.5857" r="28.5857" fill="#99DD5E"/>
<circle cx="64.5822" cy="28.5857" r="28.5857" fill="#97DE5F"/>
<circle cx="65.2883" cy="28.5857" r="28.5857" fill="#95DF5F"/>
<circle cx="65.9939" cy="28.5857" r="28.5857" fill="#93E05F"/>
<circle cx="66.6999" cy="28.5857" r="28.5857" fill="#91E160"/>
<circle cx="67.406" cy="28.5857" r="28.5857" fill="#8FE260"/>
<circle cx="68.1115" cy="28.5857" r="28.5857" fill="#8DE360"/>
<circle cx="68.8171" cy="28.5857" r="28.5857" fill="#8BE461"/>
<circle cx="69.5232" cy="28.5857" r="28.5857" fill="#89E561"/>
<circle cx="70.2287" cy="28.5857" r="28.5857" fill="#87E662"/>
<circle cx="70.9348" cy="28.5857" r="28.5857" fill="#85E762"/>
<circle cx="71.6403" cy="28.5857" r="28.5857" fill="#83E862"/>
<circle cx="72.3464" cy="28.5857" r="28.5857" fill="#81E963"/>
<circle cx="73.0525" cy="28.5857" r="28.5857" fill="#7FEA63"/>
<circle cx="73.758" cy="28.5857" r="28.5857" fill="#7DEB63"/>
<circle cx="74.4641" cy="28.5857" r="28.5857" fill="#7BEC64"/>
<circle cx="75.1696" cy="28.5857" r="28.5857" fill="#79ED64"/>
<circle cx="75.8757" cy="28.5857" r="28.5857" fill="#77EE65"/>
<circle cx="76.5813" cy="28.5857" r="28.5857" fill="#76EF65"/>
<circle cx="77.2873" cy="28.5857" r="28.5857" fill="#74F065"/>
<circle cx="77.9929" cy="28.5857" r="28.5857" fill="#72F166"/>
<circle cx="78.6989" cy="28.5857" r="28.5857" fill="#70F266"/>
<circle cx="79.4045" cy="28.5857" r="28.5857" fill="#6EF366"/>
<circle cx="80.1106" cy="28.5857" r="28.5857" fill="#6CF467"/>
<circle cx="80.8161" cy="28.5857" r="28.5857" fill="#6AF567"/>
<circle cx="81.5222" cy="28.5857" r="28.5857" fill="#68F667"/>
<circle cx="82.2277" cy="28.5857" r="28.5857" fill="#66F768"/>
<circle cx="82.9338" cy="28.5857" r="28.5857" fill="#64F868"/>
<circle cx="83.6394" cy="28.5857" r="28.5857" fill="#62F969"/>
<circle cx="84.3454" cy="28.5857" r="28.5857" fill="#60FA69"/>
<circle cx="85.051" cy="28.5857" r="28.5857" fill="#5EFB69"/>
</svg>
